<svg xmlns="http://www.w3.org/2000/svg" width="242" height="242" viewBox="0 0 242 242">
  <g id="Group_84" data-name="Group 84" transform="translate(-793 -1580)">
    <g id="Path_219" data-name="Path 219" transform="translate(793 1580)" fill="#aea8a8">
      <path d="M 121 237 C 113.1262893676758 237 105.2590026855469 236.2070770263672 97.61664581298828 234.6432189941406 C 90.17110443115234 233.1196441650391 82.84742736816406 230.8462524414063 75.84910583496094 227.8862152099609 C 68.97667694091797 224.9794311523438 62.34789276123047 221.3813629150391 56.14678573608398 217.1920013427734 C 50.00332260131836 213.0415344238281 44.22610855102539 208.2748565673828 38.97560882568359 203.0243988037109 C 33.72514343261719 197.7738952636719 28.95846366882324 191.9966735839844 24.8080005645752 185.8532104492188 C 20.61864280700684 179.652099609375 17.02057075500488 173.0233154296875 14.11378574371338 166.1508941650391 C 11.1537504196167 159.1525726318359 8.880356788635254 151.8288879394531 7.356785774230957 144.3833618164063 C 5.792928695678711 136.7409973144531 5 128.8737182617188 5 121 C 5 113.1262893676758 5.792928695678711 105.2590026855469 7.356785774230957 97.61664581298828 C 8.880356788635254 90.17110443115234 11.1537504196167 82.84742736816406 14.11378574371338 75.84910583496094 C 17.02057075500488 68.97667694091797 20.61864280700684 62.34789276123047 24.8080005645752 56.14678573608398 C 28.95846366882324 50.00332260131836 33.72514343261719 44.22610855102539 38.97560882568359 38.97560882568359 C 44.22610855102539 33.72514343261719 50.00332260131836 28.95846366882324 56.14678573608398 24.8080005645752 C 62.34789276123047 20.61864280700684 68.97667694091797 17.02057075500488 75.84910583496094 14.11378574371338 C 82.84742736816406 11.1537504196167 90.17110443115234 8.880356788635254 97.61664581298828 7.356785774230957 C 105.2590026855469 5.792928695678711 113.1262893676758 5 121 5 C 128.8737182617188 5 136.7409973144531 5.792928695678711 144.3833618164063 7.356785774230957 C 151.8288879394531 8.880356788635254 159.1525726318359 11.1537504196167 166.1508941650391 14.11378574371338 C 173.0233154296875 17.02057075500488 179.652099609375 20.61864280700684 185.8532104492188 24.8080005645752 C 191.9966735839844 28.95846366882324 197.7738952636719 33.72514343261719 203.0243988037109 38.97560882568359 C 208.2748565673828 44.22610855102539 213.0415344238281 50.00332260131836 217.1920013427734 56.14678573608398 C 221.3813629150391 62.34789276123047 224.9794311523438 68.97667694091797 227.8862152099609 75.84910583496094 C 230.8462524414063 82.84742736816406 233.1196441650391 90.17110443115234 234.6432189941406 97.61664581298828 C 236.2070770263672 105.2590026855469 237 113.1262893676758 237 121 C 237 128.8737182617188 236.2070770263672 136.7409973144531 234.6432189941406 144.3833618164063 C 233.1196441650391 151.8288879394531 230.8462524414063 159.1525726318359 227.8862152099609 166.1508941650391 C 224.9794311523438 173.0233154296875 221.3813629150391 179.652099609375 217.1920013427734 185.8532104492188 C 213.0415344238281 191.9966735839844 208.2748565673828 197.7738952636719 203.0243988037109 203.0243988037109 C 197.7738952636719 208.2748565673828 191.9966735839844 213.0415344238281 185.8532104492188 217.1920013427734 C 179.652099609375 221.3813629150391 173.0233154296875 224.9794311523438 166.1508941650391 227.8862152099609 C 159.1525726318359 230.8462524414063 151.8288879394531 233.1196441650391 144.3833618164063 234.6432189941406 C 136.7409973144531 236.2070770263672 128.8737182617188 237 121 237 Z" stroke="none"/>
      <path d="M 121 10 C 59.79437255859375 10 10 59.79437255859375 10 121 C 10 182.2056274414063 59.79437255859375 232 121 232 C 182.2056274414063 232 232 182.2056274414063 232 121 C 232 59.79437255859375 182.2056274414063 10 121 10 M 121 0 C 187.8264617919922 0 242 54.17353820800781 242 121 C 242 187.8264617919922 187.8264617919922 242 121 242 C 54.17353820800781 242 0 187.8264617919922 0 121 C 0 54.17353820800781 54.17353820800781 0 121 0 Z" stroke="none"/>
    </g>
    <g id="Ellipse_15" data-name="Ellipse 15" transform="translate(868 1655)" fill="#fff" stroke="#000" stroke-width="10">
      <circle cx="46.5" cy="46.5" r="46.5" stroke="none"/>
      <circle cx="46.5" cy="46.5" r="41.5" fill="none"/>
    </g>
    <g id="Ellipse_16" data-name="Ellipse 16" transform="translate(899 1687)" fill="#fff" stroke="#000" stroke-width="10">
      <circle cx="15" cy="15" r="15" stroke="none"/>
      <circle cx="15" cy="15" r="10" fill="none"/>
    </g>
    <line id="Line_13" data-name="Line 13" x1="42" y2="74" transform="translate(956.5 1623.5)" fill="none" stroke="#000" stroke-width="1"/>
    <line id="Line_14" data-name="Line 14" x1="32" y2="58" transform="translate(929.5 1760.5)" fill="none" stroke="#000" stroke-width="1"/>
    <line id="Line_15" data-name="Line 15" x1="29" y2="51" transform="translate(990.5 1660.5)" fill="none" stroke="#000" stroke-width="1"/>
    <line id="Line_16" data-name="Line 16" x1="42" y2="74" transform="translate(887.5 1738.5)" fill="none" stroke="#000" stroke-width="1"/>
  </g>
</svg>
